<?xml version="1.0" standalone="no"?>
<!DOCTYPE svg PUBLIC "-//W3C//DTD SVG 20010904//EN"
 "http://www.w3.org/TR/2001/REC-SVG-20010904/DTD/svg10.dtd">
<svg version="1.0" xmlns="http://www.w3.org/2000/svg"
 width="720.000000pt" height="720.000000pt" viewBox="0 0 720.000000 720.000000"
 preserveAspectRatio="xMidYMid meet">
<metadata>
Created by potrace 1.14, written by Peter Selinger 2001-2017
</metadata>
<g transform="translate(0.000000,720.000000) scale(0.100000,-0.100000)"
fill="#000000" stroke="none">
<path d="M0 6231 c1 -908 2 -970 18 -974 16 -4 16 -5 -1 -6 -16 -1 -17 -14
-15 -173 l3 -172 95 -29 c52 -16 133 -40 180 -54 47 -14 797 -264 1668 -555
870 -291 1587 -526 1592 -523 6 3 10 2 10 -4 0 -5 44 -24 98 -42 96 -31 177
-67 170 -74 -2 -2 -57 15 -123 37 -223 77 -3129 1049 -3265 1093 -74 24 -196
63 -270 86 -74 23 -141 44 -147 47 -9 3 -13 -10 -13 -45 l0 -49 108 -34 c145
-45 1186 -391 1952 -649 344 -116 629 -210 635 -208 5 2 16 -3 24 -10 8 -8 22
-12 33 -10 10 3 16 2 14 -1 -2 -4 208 -79 467 -166 451 -152 541 -185 507
-186 -8 0 -404 131 -880 290 -476 160 -1038 348 -1250 419 -212 72 -585 197
-830 279 -370 124 -625 207 -758 247 l-22 6 2 -177 3 -178 150 -49 c83 -27
204 -63 270 -82 184 -51 634 -175 690 -190 65 -17 183 -50 430 -120 322 -91
384 -108 710 -200 171 -48 324 -90 340 -95 17 -4 127 -35 245 -68 118 -34 338
-96 489 -139 151 -43 276 -83 278 -90 5 -14 -87 10 -500 126 -155 44 -455 128
-667 186 -1535 424 -2288 639 -2422 690 -15 6 -18 1 -18 -33 l0 -40 138 -46
c158 -52 294 -91 732 -211 173 -47 329 -90 345 -96 17 -5 215 -61 440 -125
226 -63 455 -128 510 -144 55 -16 300 -86 545 -155 739 -209 794 -225 804
-235 23 -23 -1 -17 -954 250 -140 39 -325 91 -410 115 -85 24 -326 91 -535
149 -209 59 -418 118 -465 131 -47 13 -254 72 -460 130 -333 95 -622 181 -673
200 -16 7 -17 -38 -17 -846 l0 -854 137 8 c178 10 884 12 1033 3 114 -7 356
-17 500 -20 41 -2 100 -5 130 -9 30 -4 98 -9 150 -12 52 -3 142 -10 200 -16
58 -5 112 -10 120 -10 50 -1 350 -30 364 -35 19 -7 21 -24 4 -25 -7 -1 -31 0
-53 2 -48 3 -64 2 -90 -4 -11 -2 -23 0 -26 5 -7 11 -75 19 -184 22 -44 1 -94
6 -111 10 -66 15 -179 23 -198 14 -13 -7 -21 -6 -26 2 -4 7 -28 14 -51 16 -24
1 -62 5 -84 7 -89 11 -243 21 -300 19 -33 -1 -79 -2 -102 -3 -24 0 -43 -4 -43
-9 0 -4 -24 -3 -52 3 -64 14 -247 14 -256 0 -8 -12 -56 -9 -93 5 -15 6 -30 8
-33 5 -3 -3 -12 0 -20 6 -11 9 -16 9 -21 1 -5 -7 -20 -9 -41 -5 -19 3 -42 1
-53 -4 -14 -8 -22 -7 -31 4 -13 15 -59 11 -71 -6 -3 -5 -20 -4 -39 1 -18 5
-38 6 -44 2 -11 -8 -252 -7 -493 1 l-123 4 0 -1251 0 -1252 123 -25 122 -24
800 0 c718 0 811 2 905 18 467 78 572 102 860 198 305 102 578 214 793 327
236 124 272 144 277 150 3 4 25 18 50 31 58 32 229 144 255 168 11 10 49 38
85 62 118 80 416 359 598 559 85 92 111 103 36 15 -205 -243 -571 -571 -823
-738 -535 -353 -1278 -649 -1906 -759 -191 -34 -189 -33 -133 -35 47 -1 286
43 433 80 363 92 706 219 1090 403 342 165 669 377 893 579 210 190 272 251
397 388 l145 157 52 4 c29 2 55 3 57 2 4 -3 -104 -139 -168 -209 -535 -597
-1022 -920 -1851 -1227 -127 -47 -451 -145 -550 -166 -29 -7 766 -10 2307 -11
l2353 -1 0 414 0 415 -22 7 c-13 4 -35 16 -50 27 -35 26 -39 80 -8 99 30 19
25 51 -11 72 -17 10 -35 29 -41 42 -6 13 -15 24 -19 24 -13 0 -18 29 -9 62 7
27 7 30 -3 14 -23 -37 -59 -76 -69 -76 -5 0 -24 -6 -41 -14 -82 -36 -109 -26
-78 30 12 22 53 106 91 188 59 126 72 147 87 141 10 -4 36 -12 58 -18 22 -5
57 -16 77 -23 l38 -14 0 2905 0 2905 -898 0 -899 0 -42 -82 c-57 -109 -140
-246 -241 -394 -25 -37 -26 -43 -14 -70 7 -16 34 -57 61 -90 26 -34 93 -120
149 -190 203 -258 346 -476 459 -699 62 -123 166 -365 165 -388 -1 -36 -77 83
-115 178 -110 277 -278 547 -615 985 -69 91 -139 184 -155 208 l-28 42 30 58
c17 31 64 109 105 172 77 118 158 254 158 264 0 3 -1197 6 -2660 6 l-2660 0 0
-969z m5241 872 c-5 -10 -17 -27 -26 -38 -16 -19 -16 -19 -4 5 13 27 29 50 36
50 2 0 -1 -8 -6 -17z m-55 -90 c-24 -45 -56 -89 -56 -77 0 12 57 104 65 104 3
0 -1 -12 -9 -27z m-98 -446 c35 -43 38 -49 20 -41 -13 4 -35 36 -72 99 -17 29
-17 30 1 6 10 -14 33 -43 51 -64z m199 -254 c101 -129 216 -291 295 -417 74
-117 215 -393 206 -402 -3 -3 -47 75 -98 173 -51 98 -105 196 -119 218 -136
200 -193 281 -264 378 -89 120 -101 137 -93 137 2 0 35 -39 73 -87z m-4097
-574 c0 -5 -6 -7 -12 -4 -7 4 -5 0 5 -8 17 -14 25 -33 10 -24 -5 3 -9 -7 -10
-21 -3 -57 -8 -80 -18 -79 -5 1 -9 -4 -7 -10 1 -7 -5 -13 -14 -13 -9 0 -12 -5
-8 -12 5 -8 2 -9 -10 -5 -14 6 -17 3 -12 -8 5 -13 2 -14 -15 -4 -19 10 -20 9
-14 -11 5 -15 4 -20 -4 -16 -19 12 -12 31 20 62 38 35 59 81 59 129 0 24 4 35
15 35 8 0 15 -5 15 -11z m-1000 -19 c8 -5 11 -10 5 -10 -5 0 -17 5 -25 10 -8
5 -10 10 -5 10 6 0 17 -5 25 -10z m5050 -110 c-5 -88 -6 -91 -10 -38 -4 48 6
147 14 136 1 -1 0 -46 -4 -98z m-5140 70 c18 -12 2 -12 -25 0 -13 6 -15 9 -5
9 8 0 22 -4 30 -9z m70 -20 c8 -5 11 -10 5 -10 -5 0 -17 5 -25 10 -8 5 -10 10
-5 10 6 0 17 -5 25 -10z m70 -20 c8 -5 11 -10 5 -10 -5 0 -17 5 -25 10 -8 5
-10 10 -5 10 6 0 17 -5 25 -10z m277 -76 c-3 -3 -12 -4 -19 -1 -8 3 -5 6 6 6
11 1 17 -2 13 -5z m4742 -136 c1 -5 -4 -8 -10 -8 -5 0 -8 4 -4 9 3 5 1 12 -5
16 -6 4 -7 11 -3 18 6 10 20 -13 22 -35z m86 -242 c31 -65 32 -77 4 -41 -26
32 -89 206 -89 244 0 15 13 -12 30 -62 17 -49 41 -113 55 -141z m-5107 93
c194 -57 230 -69 205 -69 -13 0 -382 108 -408 120 -46 20 8 7 203 -51z m-123
-49 c28 -10 43 -18 35 -18 -8 0 -37 8 -65 18 -27 10 -43 18 -35 18 8 0 38 -8
65 -18z m100 -30 c13 -6 15 -9 5 -9 -8 0 -22 4 -30 9 -18 12 -2 12 25 0z m359
-20 c76 -28 42 -23 -44 5 -41 14 -60 22 -41 19 19 -4 57 -14 85 -24z m5100 14
c21 -8 10 -24 -15 -24 -11 0 -22 -7 -25 -15 -8 -19 -24 -20 -24 -1 0 8 10 22
22 30 26 19 22 18 42 10z m84 -31 c22 -22 3 -35 -20 -13 -12 11 -25 20 -30 20
-4 0 -8 7 -8 15 0 13 4 14 22 4 13 -7 29 -18 36 -26z m-5461 11 c-3 -3 -12 -4
-19 -1 -8 3 -5 6 6 6 11 1 17 -2 13 -5z m258 -74 c13 -6 15 -9 5 -9 -8 0 -22
4 -30 9 -18 12 -2 12 25 0z m4841 -7 c18 -24 18 -44 0 -37 -8 3 -12 12 -9 20
3 8 0 14 -6 14 -6 0 -11 5 -11 10 0 15 11 12 26 -7z m122 -167 c232 -318 345
-488 393 -591 124 -267 170 -450 169 -685 0 -150 -26 -341 -60 -448 -12 -37
-24 -73 -26 -81 -3 -11 -8 -11 -16 -3 -8 8 -6 15 6 27 14 15 21 43 17 69 -1 4
3 13 8 20 5 6 12 29 14 51 3 22 10 56 16 75 16 49 16 106 2 124 -7 9 -8 17 -2
20 5 3 11 1 13 -5 2 -7 4 27 3 75 0 48 3 92 7 99 4 6 2 17 -4 24 -5 7 -10 55
-10 108 -1 52 -4 95 -7 95 -3 0 -7 17 -9 37 -1 20 -9 50 -17 66 -8 16 -12 33
-9 38 3 5 -2 9 -10 9 -12 0 -14 7 -9 30 4 25 2 30 -13 30 -14 0 -15 3 -6 8 13
9 6 42 -9 42 -5 0 -9 7 -9 16 0 12 -7 14 -30 9 -29 -6 -30 -5 -30 26 0 30 1
31 18 16 10 -10 21 -14 25 -11 7 8 -31 108 -44 112 -5 2 -9 10 -9 18 0 9 -5
12 -12 8 -8 -5 -9 -2 -4 11 8 22 -18 65 -40 65 -14 0 -14 3 -4 15 8 10 9 15 1
15 -6 0 -13 11 -17 25 -3 14 -10 25 -15 25 -5 0 -8 3 -8 8 1 4 1 14 0 22 -1
13 -2 13 -11 0 -8 -13 -10 -13 -10 2 0 9 -5 18 -11 20 -5 2 -11 11 -13 21 -1
9 -17 31 -34 48 -18 17 -32 38 -32 45 0 8 -7 14 -15 14 -8 0 -15 9 -15 20 0
11 -4 20 -9 20 -5 0 -13 9 -16 20 -4 11 -10 18 -15 15 -5 -3 -12 7 -16 22 -3
15 -12 33 -18 38 -6 6 -17 23 -24 38 -7 16 -17 25 -23 21 -7 -4 -9 0 -5 12 4
14 -4 27 -28 46 -33 26 -66 78 -66 102 0 13 19 -10 98 -118z m-4947 -19 c-10
-9 -11 -8 -5 6 3 10 9 15 12 12 3 -3 0 -11 -7 -18z m1659 -77 c8 -5 11 -10 5
-10 -5 0 -17 5 -25 10 -8 5 -10 10 -5 10 6 0 17 -5 25 -10z m85 -40 c3 -6 -1
-7 -9 -4 -18 7 -21 14 -7 14 6 0 13 -4 16 -10z m45 -20 c8 -5 11 -10 5 -10 -5
0 -17 5 -25 10 -8 5 -10 10 -5 10 6 0 17 -5 25 -10z m205 0 c3 -6 -1 -7 -9 -4
-18 7 -21 14 -7 14 6 0 13 -4 16 -10z m50 -20 c3 -6 -1 -7 -9 -4 -18 7 -21 14
-7 14 6 0 13 -4 16 -10z m-170 -20 c3 -6 -1 -7 -9 -4 -18 7 -21 14 -7 14 6 0
13 -4 16 -10z m255 -16 c33 -15 59 -29 57 -31 -2 -2 -33 10 -68 26 -80 37 -72
40 11 5z m-210 -9 c0 -8 -6 -15 -14 -15 -17 0 -28 14 -19 24 12 12 33 6 33 -9z
m105 -40 c39 -19 66 -34 60 -34 -13 0 -153 67 -140 68 6 0 42 -15 80 -34z
m200 5 c3 -6 -1 -7 -9 -4 -18 7 -21 14 -7 14 6 0 13 -4 16 -10z m95 -40 c19
-11 31 -19 25 -19 -5 0 -26 8 -45 19 -19 11 -30 19 -25 19 6 0 26 -8 45 -19z
m-150 -30 c30 -16 52 -29 49 -30 -11 0 -119 49 -119 55 0 9 15 4 70 -25z m288
-31 c40 -17 71 -34 69 -36 -5 -4 -155 61 -165 72 -9 10 4 5 96 -36z m-759 -25
c8 -2 12 -7 9 -9 -5 -6 -78 22 -78 30 0 2 12 0 28 -6 15 -5 33 -12 41 -15z
m581 6 c19 -11 31 -19 25 -19 -5 0 -26 8 -45 19 -19 11 -30 19 -25 19 6 0 26
-8 45 -19z m-460 -53 c36 -14 227 -87 425 -162 198 -75 369 -140 380 -145 11
-4 76 -29 145 -54 277 -104 570 -219 566 -223 -3 -3 -64 18 -136 46 -72 28
-135 49 -141 46 -5 -4 -9 -2 -9 3 0 5 -15 14 -32 20 -43 14 -221 81 -613 231
-598 229 -675 260 -675 268 0 3 6 3 13 0 6 -3 41 -16 77 -30z m525 23 c3 -5 2
-10 -4 -10 -5 0 -13 5 -16 10 -3 6 -2 10 4 10 5 0 13 -4 16 -10z m245 -10 c19
-11 31 -19 25 -19 -5 0 -26 8 -45 19 -19 11 -30 19 -25 19 6 0 26 -8 45 -19z
m-132 -41 c40 -17 70 -34 68 -36 -2 -2 -41 14 -87 37 -97 47 -87 47 19 -1z
m222 1 c19 -11 31 -19 25 -19 -5 0 -26 8 -45 19 -19 11 -30 19 -25 19 6 0 26
-8 45 -19z m-1030 -10 c8 -5 11 -10 5 -10 -5 0 -17 5 -25 10 -8 5 -10 10 -5
10 6 0 17 -5 25 -10z m75 -31 c22 -10 29 -16 15 -13 -28 7 -80 33 -65 33 6 0
28 -9 50 -20z m1062 -5 c32 -14 162 -71 288 -126 297 -129 338 -148 333 -154
-4 -4 -206 82 -348 148 -25 11 -110 49 -189 84 -80 35 -147 66 -149 69 -11 11
10 4 65 -21z m43 -122 c146 -65 290 -131 320 -145 31 -14 79 -35 108 -46 74
-29 155 -71 149 -78 -3 -2 -20 2 -39 11 -223 102 -459 209 -618 281 -107 48
-199 92 -205 98 -13 13 -20 16 285 -121z m-990 87 c30 -11 82 -31 115 -44 33
-13 132 -51 220 -85 88 -33 176 -67 195 -75 19 -7 127 -50 240 -94 113 -43
309 -120 435 -169 127 -50 241 -92 254 -94 13 -2 31 -13 39 -26 l16 -24 -37
21 c-20 11 -83 38 -139 60 -850 325 -1398 538 -1407 547 -10 9 18 3 69 -17z
m2227 -357 c335 -238 526 -352 694 -413 113 -41 199 -57 364 -68 77 -5 151
-14 165 -21 35 -16 75 -157 67 -239 -7 -80 -133 -451 -219 -644 -24 -52 -48
-80 -48 -55 0 15 -54 30 -107 30 -13 0 -23 6 -23 14 0 8 -5 14 -11 14 -5 0 -7
-5 -3 -11 4 -8 0 -7 -15 1 -12 6 -19 15 -16 20 3 5 0 12 -6 16 -8 4 -9 3 -5
-4 13 -22 -3 -12 -116 69 -62 44 -129 89 -149 100 -21 10 -40 23 -44 29 -8 12
-144 55 -256 80 -257 57 -796 104 -1009 88 -287 -23 -370 -19 -423 16 -25 17
-33 30 -35 60 -2 23 2 44 11 54 8 10 24 35 35 57 25 49 58 78 89 78 14 0 23 6
24 16 0 10 2 11 6 4 7 -18 43 -16 43 2 0 13 4 14 21 5 23 -13 49 2 49 26 0 22
41 17 47 -6 6 -24 16 -25 38 -4 12 12 19 13 29 5 9 -8 21 -8 37 -2 18 7 19 10
7 10 -10 1 -18 6 -18 12 0 6 6 9 13 6 25 -9 80 24 135 81 70 73 152 183 184
247 25 50 88 223 88 243 0 5 16 49 36 96 39 94 65 118 121 111 21 -2 89 -44
200 -123z m-1667 108 c0 -5 -2 -10 -4 -10 -3 0 -8 5 -11 10 -3 6 -1 10 4 10 6
0 11 -4 11 -10z m1050 -15 c7 -8 9 -15 6 -15 -4 0 -14 7 -22 15 -9 8 -11 15
-6 15 5 0 15 -7 22 -15z m-3779 -42 c-12 -20 -14 -14 -5 12 4 9 9 14 11 11 3
-2 0 -13 -6 -23z m3200 -49 c12 -14 11 -16 -5 -13 -11 2 -21 10 -24 17 -5 17
13 15 29 -4z m2643 -92 c16 -52 32 -181 21 -170 -11 10 -54 229 -44 223 4 -3
14 -27 23 -53z m-2135 -46 c9 -11 9 -16 0 -22 -7 -4 -9 -3 -5 4 3 6 -2 15 -11
21 -10 6 -13 11 -7 11 6 0 17 -6 23 -14z m-3600 -113 c-1 -5 0 -10 1 -13 3 -7
10 -80 11 -103 0 -11 -14 -32 -31 -48 -17 -17 -28 -35 -24 -40 4 -8 -1 -9 -16
-4 -19 6 -22 4 -17 -9 7 -19 -4 -21 -20 -5 -9 9 -3 25 22 63 19 28 37 69 40
91 10 59 15 75 26 75 5 0 8 -3 8 -7z m5561 -168 c-6 -31 -14 -54 -17 -52 -3 3
1 31 8 61 7 31 14 54 16 52 3 -2 -1 -30 -7 -61z m43 0 c-3 -9 -8 -14 -10 -11
-3 3 -2 9 2 15 9 16 15 13 8 -4z m-5223 1 c0 -2 -8 -10 -17 -17 -16 -13 -17
-12 -4 4 13 16 21 21 21 13z m1875 -16 c3 -5 1 -10 -4 -10 -6 0 -11 5 -11 10
0 6 2 10 4 10 3 0 8 -4 11 -10z m85 0 c0 -5 -4 -10 -10 -10 -5 0 -10 5 -10 10
0 6 5 10 10 10 6 0 10 -4 10 -10z m3260 -14 c0 -3 -4 -8 -10 -11 -5 -3 -10 -1
-10 4 0 6 5 11 10 11 6 0 10 -2 10 -4z m-4723 -12 c-3 -3 -12 -4 -19 -1 -8 3
-5 6 6 6 11 1 17 -2 13 -5z m55 -13 c13 -5 49 -17 81 -27 31 -10 57 -22 57
-26 0 -4 -4 -8 -9 -8 -22 0 -171 54 -171 62 0 10 13 10 42 -1z m-732 -151
c-40 -44 -75 -80 -77 -80 -3 0 24 32 58 71 35 39 68 77 74 84 5 8 11 12 13 10
3 -2 -28 -40 -68 -85z m3320 -2 c0 -13 -23 -5 -28 10 -2 7 2 10 12 6 9 -3 16
-11 16 -16z m-2820 2 c18 -12 2 -12 -25 0 -13 6 -15 9 -5 9 8 0 22 -4 30 -9z
m175 -10 c3 -6 -1 -7 -9 -4 -18 7 -21 14 -7 14 6 0 13 -4 16 -10z m-382 -19
c3 -14 1 -18 -9 -14 -8 3 -14 11 -14 19 0 21 17 17 23 -5z m2987 9 c0 -5 -4
-10 -10 -10 -5 0 -10 5 -10 10 0 6 5 10 10 10 6 0 10 -4 10 -10z m-2563 -6
c-3 -3 -12 -4 -19 -1 -8 3 -5 6 6 6 11 1 17 -2 13 -5z m-637 -24 c0 -5 -2 -10
-4 -10 -3 0 -8 5 -11 10 -3 6 -1 10 4 10 6 0 11 -4 11 -10z m325 0 c3 -5 16
-11 28 -11 17 -1 18 -2 5 -6 -10 -2 -28 3 -40 11 -12 9 -17 16 -11 16 7 0 15
-4 18 -10z m-138 -36 c-3 -3 -12 -4 -19 -1 -8 3 -5 6 6 6 11 1 17 -2 13 -5z
m328 -22 c19 -11 19 -11 -2 -12 -13 0 -23 5 -23 10 0 6 -3 9 -7 9 -24 -4 -63
2 -63 10 0 10 69 -2 95 -17z m-185 -22 c8 -5 12 -11 9 -14 -3 -3 -14 1 -25 9
-21 16 -8 20 16 5z m160 -10 c0 -5 -5 -10 -11 -10 -5 0 -7 5 -4 10 3 6 8 10
11 10 2 0 4 -4 4 -10z m137 -6 c-3 -3 -12 -4 -19 -1 -8 3 -5 6 6 6 11 1 17 -2
13 -5z m-122 -44 c3 -5 2 -10 -4 -10 -5 0 -13 5 -16 10 -3 6 -2 10 4 10 5 0
13 -4 16 -10z m885 6 c0 -11 -19 -15 -25 -6 -3 5 1 10 9 10 9 0 16 -2 16 -4z
m-640 -86 c8 -5 11 -10 5 -10 -5 0 -17 5 -25 10 -8 5 -10 10 -5 10 6 0 17 -5
25 -10z m4596 -85 c-6 -25 -14 -45 -18 -45 -10 0 -10 7 3 53 14 53 27 46 15
-8z m-5036 -29 c0 -11 -19 -15 -25 -6 -3 5 1 10 9 10 9 0 16 -2 16 -4z m5022
-88 c4 -32 2 -45 -6 -42 -7 3 -10 22 -8 50 5 55 8 53 14 -8z m265 -40 c-16
-70 -18 -92 -9 -79 5 7 15 10 21 7 17 -11 13 -58 -9 -86 l-19 -25 -9 25 -10
25 -16 -37 c-9 -21 -16 -42 -16 -47 0 -5 -5 -13 -11 -17 -24 -15 11 141 51
229 16 33 34 36 27 5z m-301 -76 c-11 -10 -14 3 -8 33 l7 30 3 -28 c2 -16 1
-31 -2 -35z m58 -56 c-3 -15 -21 -56 -40 -90 -19 -33 -37 -69 -40 -78 -4 -10
-10 -18 -14 -18 -5 0 -17 -3 -27 -6 -11 -4 -6 4 12 20 17 14 26 25 22 26 -5 0
-1 7 8 16 9 9 14 23 11 30 -3 8 0 14 5 14 6 0 9 9 6 20 -3 13 0 20 9 20 8 0
14 9 14 20 0 11 5 20 10 20 6 0 8 11 4 25 -3 14 -3 37 1 53 l8 27 8 -35 c5
-19 6 -48 3 -64z m-381 -281 c1 -31 -5 -63 -16 -84 -9 -19 -15 -36 -13 -38 6
-6 219 33 341 62 119 29 173 36 180 25 7 -11 -81 -38 -155 -47 -19 -2 -41 -11
-47 -20 -16 -20 -8 -30 10 -15 19 16 29 4 16 -19 -7 -15 -6 -19 6 -19 14 0 20
17 16 48 -2 16 14 15 32 -3 18 -17 31 -7 16 12 -9 10 -8 13 4 13 16 0 27 -20
27 -51 0 -22 -10 -24 -29 -6 -11 10 -13 9 -8 -5 4 -11 -2 -24 -16 -35 -12 -10
-33 -34 -47 -53 -32 -46 -71 -80 -83 -73 -6 3 -7 1 -3 -5 3 -6 -1 -17 -9 -25
-8 -9 -15 -18 -15 -22 0 -7 -55 -77 -90 -115 -40 -43 -70 -80 -70 -86 0 -13
-83 -123 -98 -129 -8 -3 -19 0 -24 7 -5 9 -8 6 -8 -10 0 -12 -8 -26 -17 -29
-9 -4 -26 -16 -37 -27 -13 -13 -21 -16 -24 -8 -2 7 -8 12 -13 12 -4 0 -6 -7
-3 -15 4 -9 0 -15 -10 -15 -9 0 -16 5 -16 10 0 6 -4 10 -10 10 -5 0 -10 -9
-10 -21 0 -15 -4 -19 -16 -15 -9 4 -28 -1 -42 -10 -20 -13 -27 -14 -30 -4 -3
9 -6 10 -12 0 -4 -7 -21 -13 -37 -14 -17 -1 -37 -7 -46 -14 -12 -10 -16 -10
-21 0 -5 10 -7 10 -12 -1 -5 -10 -8 -11 -14 -1 -5 8 -13 9 -21 4 -20 -12 -49
-12 -49 0 0 6 -7 3 -14 -7 -8 -11 -15 -14 -18 -7 -2 8 -11 8 -32 0 -16 -6 -50
-10 -75 -9 -25 1 -64 -2 -86 -7 -59 -13 -308 -10 -313 4 -2 7 -10 12 -18 12
-8 0 -11 -6 -8 -15 7 -18 -9 -19 -38 -4 -15 8 -22 8 -28 -1 -6 -10 -15 -10
-41 -1 -25 9 -34 8 -40 -1 -6 -9 -11 -9 -21 0 -9 7 -26 8 -52 2 -30 -7 -36 -6
-32 6 6 16 -19 20 -29 5 -3 -6 -18 -3 -35 7 -25 14 -32 15 -39 3 -11 -17 -64
-18 -69 -1 -3 9 -6 9 -13 -1 -6 -11 -14 -10 -41 2 -20 10 -48 14 -71 11 -55
-6 -110 6 -103 24 3 8 1 14 -4 14 -6 0 -10 -5 -10 -11 0 -5 -4 -8 -9 -5 -5 4
-11 2 -13 -4 -5 -15 -63 5 -60 21 1 9 -3 8 -12 -4 -12 -16 -18 -16 -91 -2 -43
8 -81 13 -85 10 -4 -2 -17 5 -29 16 -16 15 -25 18 -34 10 -10 -8 -64 -9 -74 0
-2 1 -6 2 -10 3 -5 1 -17 7 -29 13 -11 7 -29 13 -40 13 -90 5 -116 8 -121 13
-3 3 -18 3 -34 0 -18 -3 -29 -1 -29 6 0 6 -7 11 -15 11 -8 0 -15 5 -15 10 0 6
-13 10 -30 10 -16 0 -30 5 -30 11 0 5 -4 8 -10 4 -5 -3 -7 -12 -3 -20 6 -16
-8 -19 -44 -9 -19 5 -21 10 -12 25 7 13 6 19 -1 19 -6 0 -13 -7 -16 -15 -7
-17 -74 -21 -74 -5 0 6 -8 10 -17 10 -10 0 -30 7 -45 14 -16 8 -28 11 -28 5 0
-5 -17 -9 -37 -8 -30 0 -34 2 -18 9 16 6 17 9 5 13 -39 14 -72 14 -77 0 -4
-10 -14 -12 -36 -7 -16 3 -35 7 -41 8 -6 1 -18 6 -26 11 -8 5 -26 9 -40 9 -17
1 -26 7 -28 21 -5 27 -22 44 -22 22 0 -9 -6 -17 -12 -18 -7 0 -26 -2 -42 -4
-33 -4 -66 10 -66 28 0 15 -39 41 -48 32 -4 -4 -7 -12 -7 -18 0 -18 -133 -17
-140 1 -4 11 -9 12 -19 3 -10 -9 -21 -8 -42 0 -16 7 -41 11 -56 10 -18 -1 -31
6 -38 18 -14 28 -14 29 24 25 40 -3 40 15 0 41 -31 20 -21 39 17 31 32 -6 40
7 12 19 -32 14 -53 15 -53 2 0 -9 -2 -9 -9 1 -6 9 -8 5 -9 -15 -1 -125 -6
-140 -33 -107 -7 9 -26 15 -48 14 -67 -3 -97 0 -83 9 7 4 12 12 11 17 -4 21 2
35 11 29 12 -7 56 32 47 42 -4 3 -7 1 -7 -5 0 -7 -15 -12 -35 -12 -41 0 -45
11 -10 34 19 12 30 14 44 6 26 -13 38 -13 24 1 -9 9 -7 49 3 49 9 0 49 -25 56
-35 4 -5 8 0 8 13 0 21 1 22 16 8 18 -19 31 -21 17 -3 -6 6 -13 22 -16 35 -4
17 -1 22 14 22 11 0 22 7 25 15 7 17 34 21 34 5 0 -5 -4 -10 -9 -10 -5 0 -7
-10 -5 -22 2 -13 2 -17 -2 -10 -3 6 -13 12 -22 12 -14 0 -14 -2 -3 -9 7 -5 10
-14 6 -20 -8 -14 42 -68 52 -57 4 4 -6 18 -22 31 -21 17 -25 24 -14 25 9 0 22
-7 29 -15 18 -21 33 -19 27 5 -3 10 0 21 7 24 7 3 6 8 -4 15 -12 8 -12 11 -1
11 8 0 11 6 6 18 -5 13 -1 12 14 -5 12 -12 21 -26 21 -31 0 -9 51 -24 58 -17
2 2 -9 9 -24 17 -20 9 -28 20 -27 36 1 34 2 35 16 24 19 -16 57 -3 57 19 0 28
19 23 30 -7 13 -33 13 -34 -5 -28 -8 4 -15 1 -15 -5 0 -6 8 -11 18 -11 10 0
23 -4 30 -10 9 -7 9 -7 2 2 -19 23 -10 30 16 13 28 -18 28 -18 53 25 8 11 17
5 50 -30 30 -33 41 -40 41 -27 0 10 5 15 10 12 6 -3 10 -1 10 4 0 6 -6 11 -14
11 -8 0 -18 5 -21 10 -4 7 3 9 22 5 l28 -6 -30 18 c-16 9 -37 16 -45 15 -13
-3 -13 -2 0 8 13 8 12 11 -7 16 -12 3 -24 13 -28 21 -4 13 -3 14 9 4 8 -7 20
-10 25 -7 5 4 12 2 16 -4 9 -15 35 -12 35 4 0 8 6 16 13 19 6 2 9 7 6 11 -12
12 -51 15 -70 5 -15 -8 -17 -6 -12 6 3 10 -3 22 -16 31 -11 8 -21 21 -20 27 0
9 2 9 6 0 2 -7 15 -13 28 -13 13 0 30 -7 39 -15 8 -8 18 -15 23 -15 13 -1 48
-34 56 -52 7 -20 32 -24 42 -8 3 6 -1 10 -9 10 -9 0 -16 5 -16 10 0 11 6 12
38 4 12 -4 22 -13 22 -20 0 -8 7 -14 16 -14 15 0 15 2 0 25 -16 24 -16 25 4
25 14 0 20 -7 20 -24 0 -15 7 -26 20 -29 24 -6 27 8 4 17 -12 5 -14 13 -10 32
7 26 6 27 -33 21 -23 -3 -41 -1 -41 4 0 5 -4 9 -10 9 -5 0 -7 -7 -3 -16 4 -12
1 -15 -13 -12 -12 2 -22 16 -28 41 -5 20 -13 37 -18 37 -4 0 -8 5 -8 12 0 6 9
3 20 -7 11 -10 20 -15 20 -11 0 4 7 0 16 -8 21 -22 45 -21 37 2 -5 13 -1 12
19 -5 l24 -23 23 21 c17 16 25 18 36 9 8 -7 36 -13 62 -14 38 -1 47 -4 45 -17
-1 -9 4 -19 12 -22 9 -4 16 5 20 26 l7 32 23 -29 c20 -24 26 -27 45 -17 11 7
21 8 21 4 0 -4 5 0 11 10 10 18 11 18 24 0 13 -17 15 -17 45 0 17 11 34 16 38
12 4 -4 1 -10 -5 -12 -7 -3 -13 -9 -13 -14 0 -12 72 0 81 13 3 5 19 6 34 2 20
-5 26 -4 21 5 -16 25 7 30 37 8 38 -28 67 -41 86 -38 10 2 12 -5 9 -24 -4 -20
-2 -25 10 -23 26 5 24 24 -5 59 l-28 34 28 -18 c16 -10 33 -17 39 -15 19 7
-33 47 -69 54 -32 6 -40 14 -26 27 3 4 11 3 17 -3 7 -5 47 -12 91 -15 43 -3
88 -8 99 -10 39 -9 380 -37 471 -39 50 -2 97 -5 105 -9 8 -3 24 -8 35 -10 17
-3 16 -5 -9 -16 -23 -9 -26 -14 -16 -26 11 -13 14 -13 26 2 13 17 15 17 29 -1
8 -11 21 -16 30 -12 9 3 13 2 10 -4 -3 -6 1 -10 9 -10 20 0 20 19 1 48 l-16
22 63 -6 c35 -3 76 -10 92 -15 15 -5 32 -6 37 -3 16 10 72 -7 61 -18 -6 -6 -8
-17 -5 -24 6 -16 33 -19 33 -4 0 6 11 8 25 4 15 -4 25 -2 25 5 0 6 -11 11 -24
11 -14 0 -27 4 -30 9 -7 11 156 20 168 10 5 -5 15 -4 22 2 13 11 64 -7 77 -28
9 -15 57 -18 57 -3 0 6 -12 10 -27 10 -24 1 -25 2 -11 11 14 8 66 11 153 7 75
-3 226 6 231 14 3 5 11 4 19 -2 8 -7 33 -9 67 -5 68 9 129 13 196 14 40 1 52
5 52 17 0 18 100 217 106 211 6 -6 -21 -77 -55 -145 -33 -66 -35 -72 -23 -72
4 0 33 51 63 114 59 125 68 127 72 21z m247 20 c0 -8 -4 -15 -10 -15 -5 0 -7
7 -4 15 4 8 8 15 10 15 2 0 4 -7 4 -15z m-84 -21 c-3 -9 -9 -27 -12 -40 -6
-24 -18 -31 -28 -16 -6 11 24 72 36 72 6 0 7 -7 4 -16z m-3001 -8 c105 -8 384
-35 438 -42 32 -4 51 -12 58 -25 14 -27 -16 -37 -42 -13 -25 22 -99 26 -116 4
-10 -13 -13 -13 -30 2 -16 15 -25 16 -56 6 -33 -10 -38 -9 -55 12 -18 23 -20
23 -36 7 -14 -13 -22 -15 -38 -6 -11 6 -22 8 -25 5 -4 -3 -12 -1 -20 6 -7 6
-42 12 -76 14 -61 4 -107 19 -107 36 0 5 8 7 18 4 9 -3 49 -7 87 -10z m-261
-71 c21 -16 15 -18 -21 -9 -13 4 -23 10 -23 15 0 13 23 10 44 -6z m-59 -15 c3
-5 2 -10 -4 -10 -5 0 -13 5 -16 10 -3 6 -2 10 4 10 5 0 13 -4 16 -10z m-147
-19 c3 -8 -1 -12 -9 -9 -7 2 -15 10 -17 17 -3 8 1 12 9 9 7 -2 15 -10 17 -17z
m39 -7 c-9 -9 -28 6 -21 18 4 6 10 6 17 -1 6 -6 8 -13 4 -17z m213 -24 c0 -5
-4 -10 -10 -10 -5 0 -10 5 -10 10 0 6 5 10 10 10 6 0 10 -4 10 -10z m-140 -10
c0 -5 -9 -10 -21 -10 -13 0 -18 -4 -13 -12 14 -23 13 -58 -2 -58 -8 0 -15 3
-15 8 -9 59 -8 71 9 75 30 8 42 7 42 -3z m-85 -20 c-3 -5 -11 -10 -16 -10 -6
0 -7 5 -4 10 3 6 11 10 16 10 6 0 7 -4 4 -10z m-913 -17 c10 -9 18 -25 18 -35
0 -15 5 -18 20 -13 23 7 26 -1 7 -20 -12 -11 -17 -10 -30 6 -9 10 -23 19 -31
19 -20 0 -29 16 -21 40 8 24 13 25 37 3z m758 -14 c0 -5 -4 -9 -8 -9 -5 0 -9
7 -9 15 0 8 4 12 9 9 4 -3 8 -9 8 -15z m-96 -4 c-4 -8 -10 -12 -15 -9 -11 6
-2 24 11 24 5 0 7 -7 4 -15z m-104 -5 c0 -5 -4 -10 -10 -10 -5 0 -10 5 -10 10
0 6 5 10 10 10 6 0 10 -4 10 -10z m140 0 c0 -5 -4 -10 -10 -10 -5 0 -10 5 -10
10 0 6 5 10 10 10 6 0 10 -4 10 -10z m220 -5 c0 -8 -4 -15 -10 -15 -5 0 -10 7
-10 15 0 8 5 15 10 15 6 0 10 -7 10 -15z m-323 -22 c-4 -3 -2 -12 4 -20 9 -9
8 -13 0 -13 -6 0 -11 2 -11 4 0 2 -3 11 -6 20 -4 10 -1 16 7 16 7 0 9 -3 6 -7z
m163 -3 c0 -5 -5 -10 -11 -10 -5 0 -7 5 -4 10 3 6 8 10 11 10 2 0 4 -4 4 -10z
m-830 -16 c0 -8 -5 -12 -10 -9 -6 4 -8 11 -5 16 9 14 15 11 15 -7z m728 -1 c6
-19 -25 -16 -32 3 -4 11 -1 14 11 12 9 -2 18 -9 21 -15z m304 -5 c-7 -7 -12
-8 -12 -2 0 6 3 14 7 17 3 4 9 5 12 2 2 -3 -1 -11 -7 -17z m-782 2 c12 -7 10
-9 -8 -7 -12 0 -22 5 -22 9 0 11 12 10 30 -2z m147 -6 c16 6 17 6 2 -9 -18
-18 -49 -10 -49 12 0 13 3 13 15 3 8 -7 23 -9 32 -6z m213 -4 c0 -5 -2 -10 -4
-10 -3 0 -8 5 -11 10 -3 6 -1 10 4 10 6 0 11 -4 11 -10z m-132 -39 c-17 -21
-30 -31 -43 -31 -5 0 -4 4 4 9 8 5 11 16 8 24 -8 21 13 39 30 25 11 -9 11 -14
1 -27z m149 19 c-3 -12 1 -24 11 -31 15 -9 15 -10 -1 -5 -10 3 -23 6 -28 6
-13 0 -11 24 3 38 17 17 21 15 15 -8z m4717 -5 c-4 -8 -8 -15 -10 -15 -2 0 -4
7 -4 15 0 8 4 15 10 15 5 0 7 -7 4 -15z m-4771 -20 c-7 -21 -13 -19 -13 6 0
11 4 18 10 14 5 -3 7 -12 3 -20z m-533 11 c0 -11 -19 -15 -25 -6 -3 5 1 10 9
10 9 0 16 -2 16 -4z m290 -6 c0 -5 -12 -10 -26 -10 -14 0 -23 -4 -19 -10 3 -5
2 -10 -3 -10 -22 0 -20 29 1 33 39 8 47 7 47 -3z m80 1 c0 -5 3 -17 7 -27 6
-15 4 -15 -14 2 -20 19 -21 34 -2 34 5 0 9 -4 9 -9z m110 -21 c-8 -5 -11 -10
-5 -10 5 0 4 -5 -2 -11 -6 -6 -9 -18 -6 -25 3 -8 0 -14 -6 -14 -6 0 -11 8 -11
18 -1 16 -1 16 -11 0 -5 -10 -17 -18 -26 -18 -14 0 -14 -3 -5 -12 10 -10 14
-10 21 0 4 7 15 10 24 6 9 -3 14 -10 11 -15 -3 -5 1 -12 9 -15 9 -3 13 -13 10
-25 -6 -22 -33 -26 -33 -4 0 8 -6 15 -13 15 -14 0 -67 51 -67 64 0 5 7 6 15 2
8 -3 15 -1 15 4 0 6 7 10 15 10 8 0 15 5 15 10 0 6 10 15 23 20 30 12 46 12
27 0z m-635 -10 c3 -5 -1 -10 -10 -10 -9 0 -13 5 -10 10 3 6 8 10 10 10 2 0 7
-4 10 -10z m375 -21 c0 -6 -4 -7 -10 -4 -5 3 -10 11 -10 16 0 6 5 7 10 4 6 -3
10 -11 10 -16z m5121 -2 c-10 -9 -11 -8 -5 6 3 10 9 15 12 12 3 -3 0 -11 -7
-18z m208 9 c9 -10 10 -24 3 -48 -13 -43 -132 -310 -187 -418 -23 -47 -64
-132 -90 -190 -78 -177 -294 -603 -321 -635 -17 -21 -27 -26 -31 -17 -3 7 -11
18 -17 25 -9 7 -10 22 -5 44 9 43 25 67 84 125 44 44 53 67 28 75 -6 2 -16
-10 -23 -27 -7 -16 -17 -30 -22 -30 -12 0 9 38 44 79 16 18 34 43 39 55 5 11
13 28 19 36 5 8 16 31 24 50 8 19 22 46 30 60 8 14 29 57 47 95 17 39 39 86
49 105 10 19 30 64 45 100 15 36 35 83 45 105 10 22 53 119 95 215 85 195 113
233 144 196z m-5559 -16 c0 -5 -2 -10 -4 -10 -3 0 -8 5 -11 10 -3 6 -1 10 4
10 6 0 11 -4 11 -10z m364 -7 c8 -21 -3 -31 -13 -14 -5 7 -14 10 -20 7 -6 -4
-11 -1 -11 6 0 19 37 20 44 1z m-484 -3 c0 -5 -4 -10 -10 -10 -5 0 -10 5 -10
10 0 6 5 10 10 10 6 0 10 -4 10 -10z m188 -2 c19 -19 14 -29 -8 -16 -20 13
-27 28 -12 28 4 0 13 -5 20 -12z m198 -3 c4 -10 13 -13 25 -10 11 4 19 2 19
-4 0 -5 2 -16 5 -23 11 -29 -31 -15 -52 18 -12 19 -18 34 -12 34 5 0 12 -7 15
-15z m5131 -17 c-3 -8 -6 -5 -6 6 -1 11 2 17 5 13 3 -3 4 -12 1 -19z m-5257
-24 c0 -8 -4 -12 -10 -9 -5 3 -10 10 -10 16 0 5 5 9 10 9 6 0 10 -7 10 -16z
m30 6 c0 -5 -4 -10 -10 -10 -5 0 -10 5 -10 10 0 6 5 10 10 10 6 0 10 -4 10
-10z m82 3 c-6 -2 -10 -9 -6 -14 3 -5 0 -9 -5 -9 -6 0 -11 7 -11 15 0 8 8 15
18 14 10 0 12 -3 4 -6z m135 -14 c7 -9 24 -20 38 -23 14 -4 25 -10 25 -14 0
-13 -59 -9 -64 4 -3 8 -11 14 -18 14 -7 0 -19 9 -25 19 -11 17 -10 20 10 18
12 -1 28 -9 34 -18z m-172 1 c3 -5 -1 -10 -9 -10 -9 0 -16 5 -16 10 0 6 4 10
9 10 6 0 13 -4 16 -10z m117 -42 c-7 -7 -12 -8 -12 -2 0 6 3 14 7 17 3 4 9 5
12 2 2 -3 -1 -11 -7 -17z m368 2 c0 -5 -4 -10 -10 -10 -5 0 -10 5 -10 10 0 6
5 10 10 10 6 0 10 -4 10 -10z m4630 -63 c0 -5 -4 -5 -10 -2 -5 3 -10 14 -10
23 0 15 2 15 10 2 5 -8 10 -19 10 -23z m-4340 -37 c-24 -15 -36 -11 -14 4 10
8 21 12 24 10 2 -3 -2 -9 -10 -14z m508 -115 c-3 -3 -9 2 -12 12 -6 14 -5 15
5 6 7 -7 10 -15 7 -18z m3702 -25 c0 -5 -5 -10 -11 -10 -5 0 -7 5 -4 10 3 6 8
10 11 10 2 0 4 -4 4 -10z m60 -40 c0 -5 -5 -10 -11 -10 -5 0 -7 5 -4 10 3 6 8
10 11 10 2 0 4 -4 4 -10z m-70 -4 c0 -3 -4 -8 -10 -11 -5 -3 -10 -1 -10 4 0 6
5 11 10 11 6 0 10 -2 10 -4z m403 -109 c37 -23 67 -49 67 -57 0 -20 -197 -440
-214 -458 -11 -11 -24 -9 -77 8 -92 31 -159 61 -159 71 0 14 12 11 109 -26
110 -43 140 -46 94 -9 -18 14 -33 30 -33 36 0 6 15 30 34 53 50 61 103 163
111 215 4 25 13 60 21 79 13 31 17 33 49 28 60 -10 43 6 -92 89 -29 17 -50 34
-46 37 7 7 46 -12 136 -66z m-423 33 c0 -5 -4 -10 -10 -10 -5 0 -10 5 -10 10
0 6 5 10 10 10 6 0 10 -4 10 -10z m0 -132 c0 -6 -3 -8 -7 -5 -3 4 -12 2 -20
-4 -8 -8 -13 -8 -13 -1 0 10 15 19 33 21 4 1 7 -4 7 -11z m-20 -37 c0 -6 -4
-13 -10 -16 -5 -3 -10 1 -10 9 0 9 5 16 10 16 6 0 10 -4 10 -9z m-35 -79 c-7
-8 -35 7 -35 18 0 6 7 6 20 -2 10 -7 17 -14 15 -16z m-58 -128 c-3 -3 -12 -4
-19 -1 -8 3 -5 6 6 6 11 1 17 -2 13 -5z m-153 -100 c8 -21 8 -24 -3 -24 -5 0
-11 9 -14 20 -6 24 8 27 17 4z m66 -34 c0 -5 -2 -10 -4 -10 -3 0 -8 5 -11 10
-3 6 -1 10 4 10 6 0 11 -4 11 -10z m574 -135 c7 -20 -23 -32 -35 -14 -13 21
-11 29 10 29 10 0 22 -7 25 -15z m-654 -9 c0 -3 -4 -8 -10 -11 -5 -3 -10 -1
-10 4 0 6 5 11 10 11 6 0 10 -2 10 -4z m-108 -68 c-7 -7 -12 -8 -12 -2 0 14
12 26 19 19 2 -3 -1 -11 -7 -17z m-5812 -34 c0 -8 -5 -12 -10 -9 -6 4 -8 11
-5 16 9 14 15 11 15 -7z m6650 -5 c0 -6 9 -8 23 -3 22 7 22 6 3 -15 -11 -11
-21 -19 -24 -16 -3 3 -11 0 -19 -6 -10 -9 -13 -6 -13 13 0 14 3 28 7 31 10 11
23 8 23 -4z m-6668 -37 c3 -11 0 -19 -8 -19 -15 0 -19 19 -7 30 9 10 10 9 15
-11z m6632 -37 c-6 -16 -24 -21 -24 -7 0 11 11 22 21 22 5 0 6 -7 3 -15z
m-6640 -27 c14 -9 1 -22 -13 -13 -6 3 -11 16 -10 28 0 15 2 17 6 7 3 -8 11
-18 17 -22z m4 -78 c1 -30 -2 -50 -9 -50 -6 0 -8 9 -4 20 3 11 2 27 -3 36 -6
12 -6 22 2 30 6 7 11 13 11 14 1 0 2 -22 3 -50z m742 46 c0 -3 -4 -8 -10 -11
-5 -3 -10 -1 -10 4 0 6 5 11 10 11 6 0 10 -2 10 -4z m5033 -16 c-3 -11 -13
-20 -22 -19 -10 0 -11 2 -3 6 6 2 12 11 12 19 0 8 4 14 9 14 5 0 7 -9 4 -20z
m-33 -50 c0 -5 -2 -10 -4 -10 -3 0 -8 5 -11 10 -3 6 -1 10 4 10 6 0 11 -4 11
-10z m-5721 -100 c0 -13 -1 -13 -8 0 -5 8 -12 26 -15 40 l-7 25 15 -25 c9 -14
15 -32 15 -40z m5531 -130 c0 -5 -2 -10 -4 -10 -3 0 -8 5 -11 10 -3 6 -1 10 4
10 6 0 11 -4 11 -10z m-80 -70 c0 -5 -2 -10 -4 -10 -2 0 -12 -3 -22 -7 -16 -6
-17 -5 -4 10 17 19 30 22 30 7z m-140 -154 c0 -3 -4 -8 -10 -11 -5 -3 -10 -1
-10 4 0 6 5 11 10 11 6 0 10 -2 10 -4z"/>
<path d="M4393 4097 c-36 -12 -41 -25 -32 -82 3 -22 7 -35 8 -28 0 6 10 9 24
5 20 -5 21 -4 8 12 -17 21 -7 33 14 16 13 -11 14 -10 9 4 -3 9 -1 16 5 16 6 0
11 -4 11 -10 0 -5 7 -10 15 -10 8 0 15 -3 15 -7 0 -5 13 -16 29 -25 25 -13 29
-14 24 -2 -3 8 9 1 26 -16 17 -17 31 -36 31 -41 0 -6 5 -7 10 -4 6 3 10 1 10
-4 0 -6 11 -11 23 -11 30 0 60 -32 51 -54 -8 -21 12 -21 26 2 11 16 11 16 6 0
-4 -14 1 -18 22 -19 15 0 21 -3 14 -6 -16 -6 -5 -23 16 -23 9 0 41 -18 72 -39
31 -22 70 -43 86 -47 16 -3 52 -24 81 -45 37 -28 62 -39 87 -39 27 0 34 -3 30
-15 -4 -8 -1 -16 5 -16 6 -1 16 -2 21 -3 6 0 14 -6 18 -11 4 -6 19 -16 35 -22
21 -10 27 -10 27 0 0 6 12 -1 26 -16 13 -16 31 -27 38 -24 8 3 17 2 22 -3 5
-5 25 -10 44 -11 19 -2 38 -8 42 -13 4 -6 12 -5 21 2 11 9 18 7 35 -8 25 -24
36 -26 28 -5 -7 20 -4 19 25 -6 21 -18 24 -19 27 -4 3 13 7 14 18 4 8 -6 34
-11 59 -11 24 1 47 -3 51 -9 4 -6 11 -6 20 2 11 9 14 8 14 -4 0 -8 -6 -18 -12
-21 -9 -4 -8 -5 2 -5 58 4 90 -2 90 -17 0 -8 -4 -13 -9 -9 -5 3 -12 1 -16 -5
-3 -5 3 -10 14 -10 11 0 24 8 30 18 8 13 12 14 20 5 6 -7 8 -11 5 -8 -9 6 -33
-26 -34 -43 0 -9 7 -11 20 -7 29 9 25 -13 -5 -27 -30 -13 -34 -33 -5 -25 27 7
26 -12 -2 -22 -14 -5 -17 -10 -10 -15 18 -11 15 -26 -3 -19 -9 3 -15 2 -14 -3
3 -20 -14 -53 -25 -48 -6 3 0 -4 14 -16 l25 -21 -24 6 c-16 5 -21 4 -17 -4 4
-6 1 -11 -7 -11 -19 0 -17 -32 2 -47 14 -11 13 -12 -6 -13 -30 0 -38 -18 -11
-23 23 -4 23 -4 -1 -6 -23 -1 -24 -2 -6 -21 13 -15 14 -20 5 -20 -11 0 -11 -3
-2 -12 15 -15 14 -17 57 87 97 235 106 297 49 356 -32 33 -69 46 -169 54 -38
4 -74 9 -79 12 -5 3 -47 9 -95 13 -88 8 -168 33 -281 89 -32 16 -61 27 -64 23
-3 -3 -6 -1 -6 5 0 12 -44 33 -71 33 -11 0 -18 4 -15 9 7 11 -81 64 -93 57
-13 -8 -61 17 -61 32 0 7 -10 17 -22 22 -13 5 -18 9 -13 10 6 0 -6 10 -26 23
-62 37 -123 81 -149 106 -14 13 -56 44 -95 69 -38 25 -72 49 -75 52 -6 8 -67
41 -72 39 -2 -1 -17 -7 -35 -12z m622 -387 c3 -5 1 -10 -4 -10 -6 0 -11 5 -11
10 0 6 2 10 4 10 3 0 8 -4 11 -10z m25 -40 c0 -5 -2 -10 -4 -10 -3 0 -8 5 -11
10 -3 6 -1 10 4 10 6 0 11 -4 11 -10z"/>
<path d="M4470 3959 c0 -5 5 -7 10 -4 6 3 10 8 10 11 0 2 -4 4 -10 4 -5 0 -10
-5 -10 -11z"/>
<path d="M4340 3926 c0 -9 0 -19 -1 -23 0 -4 4 -9 10 -11 14 -5 14 35 1 43 -5
3 -10 -1 -10 -9z"/>
<path d="M4500 3900 c0 -5 5 -10 11 -10 5 0 7 5 4 10 -3 6 -8 10 -11 10 -2 0
-4 -4 -4 -10z"/>
<path d="M4530 3886 c0 -2 7 -7 16 -10 8 -3 12 -2 9 4 -6 10 -25 14 -25 6z"/>
<path d="M4325 3870 c3 -5 12 -10 19 -10 7 0 25 -9 39 -20 14 -11 31 -20 38
-20 8 0 2 8 -11 17 -14 9 -27 20 -30 23 -9 12 -62 22 -55 10z"/>
<path d="M4627 3829 c7 -7 15 -10 18 -7 3 3 -2 9 -12 12 -14 6 -15 5 -6 -5z"/>
<path d="M4307 3801 c-5 -22 1 -33 14 -25 12 7 12 44 0 44 -5 0 -11 -9 -14
-19z"/>
<path d="M4565 3810 c-16 -7 -17 -9 -3 -9 9 -1 20 4 23 9 7 11 7 11 -20 0z"/>
<path d="M4465 3800 c3 -5 8 -10 11 -10 2 0 4 5 4 10 0 6 -5 10 -11 10 -5 0
-7 -4 -4 -10z"/>
<path d="M4505 3770 c-3 -5 -1 -10 4 -10 6 0 11 5 11 10 0 6 -2 10 -4 10 -3 0
-8 -4 -11 -10z"/>
<path d="M4600 3770 c-9 -6 -10 -10 -3 -10 6 0 15 5 18 10 8 12 4 12 -15 0z"/>
<path d="M4720 3776 c0 -2 8 -10 18 -17 15 -13 16 -12 3 4 -13 16 -21 21 -21
13z"/>
<path d="M4300 3750 c0 -5 7 -10 15 -10 8 0 15 5 15 10 0 6 -7 10 -15 10 -8 0
-15 -4 -15 -10z"/>
<path d="M4780 3742 c0 -5 11 -14 25 -20 14 -6 25 -10 25 -8 0 2 -11 11 -25
20 -14 9 -25 13 -25 8z"/>
<path d="M4355 3730 c-4 -6 -4 -10 -1 -10 2 0 11 -3 20 -6 9 -3 16 -2 16 4 0
14 -28 23 -35 12z"/>
<path d="M4410 3710 c0 -5 5 -10 11 -10 5 0 7 5 4 10 -3 6 -8 10 -11 10 -2 0
-4 -4 -4 -10z"/>
<path d="M4280 3690 c0 -5 5 -10 11 -10 5 0 7 5 4 10 -3 6 -8 10 -11 10 -2 0
-4 -4 -4 -10z"/>
<path d="M4450 3690 c-13 -8 -12 -10 3 -10 9 0 17 5 17 10 0 12 -1 12 -20 0z"/>
<path d="M4270 3643 c0 -12 8 -18 25 -18 30 0 31 3 8 21 -24 18 -33 17 -33 -3z"/>
<path d="M4631 3614 c18 -19 39 -34 46 -34 7 0 17 -8 22 -19 6 -10 22 -26 36
-35 25 -16 25 -16 25 13 0 44 -47 86 -110 98 l-51 10 32 -33z"/>
<path d="M4945 3630 c-3 -5 -1 -10 4 -10 6 0 11 5 11 10 0 6 -2 10 -4 10 -3 0
-8 -4 -11 -10z"/>
<path d="M4536 3623 c-15 -4 -16 -7 -5 -13 10 -7 7 -13 -12 -29 -13 -11 -20
-20 -15 -21 5 0 17 6 25 14 12 10 30 12 69 7 52 -7 68 0 35 15 -10 4 -28 7
-40 7 -12 0 -21 4 -20 10 3 12 -12 16 -37 10z"/>
<path d="M4337 3609 c7 -7 15 -10 18 -7 3 3 -2 9 -12 12 -14 6 -15 5 -6 -5z"/>
<path d="M4975 3610 c3 -5 10 -10 16 -10 5 0 9 5 9 10 0 6 -7 10 -16 10 -8 0
-12 -4 -9 -10z"/>
<path d="M4875 3581 c2 -12 7 -26 10 -31 3 -6 2 -10 -4 -10 -6 0 -15 8 -20 19
-13 23 -57 17 -64 -9 -3 -13 0 -17 9 -13 17 6 18 -1 4 -28 -6 -11 -7 -19 -1
-19 5 0 12 11 15 24 5 22 10 24 34 17 18 -6 34 -4 44 3 15 11 15 13 -4 25 -11
7 -18 15 -15 18 3 3 36 -20 72 -51 50 -42 70 -54 80 -46 20 16 44 2 37 -23 -5
-22 -5 -22 16 1 12 13 26 21 31 17 6 -3 27 -3 46 1 l36 6 -35 24 c-43 29 -55
31 -31 4 18 -19 17 -20 -3 -20 -11 0 -23 4 -27 9 -3 5 -20 7 -38 4 -28 -4 -33
-1 -43 24 -8 23 -22 32 -70 47 -32 10 -64 21 -71 23 -8 3 -11 -3 -8 -16z"/>
<path d="M4940 3596 c0 -2 7 -7 16 -10 8 -3 12 -2 9 4 -6 10 -25 14 -25 6z"/>
<path d="M4226 3534 c-11 -28 -6 -38 9 -18 8 10 15 22 15 27 0 13 -18 7 -24
-9z"/>
<path d="M4447 3539 c7 -7 15 -10 18 -7 3 3 -2 9 -12 12 -14 6 -15 5 -6 -5z"/>
<path d="M4587 3530 c-3 -13 -14 -20 -30 -20 -34 0 -43 -28 -17 -52 11 -10 20
-23 20 -29 0 -13 -52 0 -66 17 -6 8 -16 14 -22 14 -6 0 0 -12 13 -26 20 -21
34 -26 85 -28 65 -3 87 -15 76 -41 -4 -12 -11 -15 -24 -9 -31 14 -122 17 -122
4 0 -8 9 -11 25 -8 14 3 25 1 25 -3 0 -13 158 -11 165 1 4 6 -1 22 -10 37 -16
25 -16 26 16 59 19 20 39 32 48 29 37 -14 -16 27 -64 50 -67 31 -111 33 -118
5z"/>
<path d="M5180 3545 c0 -6 30 -18 70 -29 19 -5 16 -2 -10 13 -34 20 -60 26
-60 16z"/>
<path d="M4548 3533 c6 -2 18 -2 25 0 6 3 1 5 -13 5 -14 0 -19 -2 -12 -5z"/>
<path d="M5175 3515 c17 -15 52 -44 79 -66 45 -37 49 -38 62 -22 10 15 10 19
-2 21 -19 5 -18 20 2 24 14 2 -23 18 -151 63 -14 5 -12 -1 10 -20z"/>
<path d="M4841 3493 c-12 -13 -11 -14 8 -8 13 4 21 2 21 -5 0 -6 -14 -13 -31
-17 -27 -5 -29 -7 -15 -21 46 -47 163 -56 193 -16 11 15 10 21 -9 41 -12 13
-28 21 -35 19 -7 -3 -25 -1 -40 4 -58 18 -78 19 -92 3z"/>
<path d="M5425 3472 c-3 -3 -5 -16 -5 -29 0 -25 -10 -29 -27 -12 -16 16 -49 3
-35 -14 6 -6 10 -15 9 -19 -1 -3 1 -10 6 -14 4 -4 7 -2 7 4 0 7 10 12 23 12
13 0 28 5 34 11 14 14 79 -5 87 -26 8 -22 -6 -25 -69 -15 -33 5 -61 7 -64 5
-2 -3 1 -5 7 -5 7 0 12 -4 12 -10 0 -5 -6 -10 -14 -10 -20 0 -26 -12 -20 -37
4 -14 22 -26 56 -37 92 -29 126 -19 152 44 15 38 15 44 0 76 -9 19 -29 41 -44
49 -34 17 -107 35 -115 27z"/>
<path d="M5098 3443 c7 -3 16 -2 19 1 4 3 -2 6 -13 5 -11 0 -14 -3 -6 -6z"/>
<path d="M5127 3429 c-4 -16 -11 -19 -26 -14 -29 9 -28 -16 2 -41 55 -49 145
-60 178 -21 10 12 18 27 19 33 0 20 -38 46 -58 40 -10 -4 -38 1 -62 9 -23 8
-44 15 -45 15 -2 0 -5 -9 -8 -21z"/>
<path d="M4130 3375 c-10 -12 -9 -15 3 -15 9 0 18 4 22 9 3 6 17 6 35 1 18 -5
30 -5 30 1 0 5 -3 10 -7 10 -54 8 -72 7 -83 -6z"/>
<path d="M5047 3379 c7 -7 15 -10 18 -7 3 3 -2 9 -12 12 -14 6 -15 5 -6 -5z"/>
<path d="M4240 3371 c0 -5 7 -11 15 -15 8 -3 15 -1 15 3 0 5 -7 11 -15 15 -8
3 -15 1 -15 -3z"/>
<path d="M4381 3377 c2 -1 13 -9 24 -17 19 -14 19 -14 6 3 -7 9 -18 17 -24 17
-6 0 -8 -1 -6 -3z"/>
<path d="M5680 3369 c0 -5 5 -7 10 -4 6 3 10 8 10 11 0 2 -4 4 -10 4 -5 0 -10
-5 -10 -11z"/>
<path d="M5049 3343 c-13 -16 -12 -17 4 -4 16 13 21 21 13 21 -2 0 -10 -8 -17
-17z"/>
<path d="M4340 3340 c0 -6 7 -10 15 -10 8 0 15 2 15 4 0 2 -7 6 -15 10 -8 3
-15 1 -15 -4z"/>
<path d="M5627 3331 c-3 -12 -1 -21 3 -21 14 0 19 15 11 29 -6 9 -10 7 -14 -8z"/>
<path d="M4490 3320 c0 -13 98 -62 130 -66 17 -2 35 7 58 29 29 28 31 32 15
39 -28 11 -203 9 -203 -2z"/>
<path d="M4770 3321 c0 -5 7 -14 15 -21 29 -24 15 -32 -21 -11 -38 23 -57 16
-60 -21 -2 -23 12 -23 20 -1 6 14 9 15 16 4 5 -10 19 -12 45 -8 38 6 74 -5 87
-28 7 -12 68 -9 68 4 0 20 -38 55 -77 72 -47 20 -93 25 -93 10z"/>
<path d="M5085 3310 c-3 -5 1 -10 9 -10 8 0 18 5 21 10 3 6 -1 10 -9 10 -8 0
-18 -4 -21 -10z"/>
<path d="M4065 3300 c-3 -5 -1 -10 4 -10 6 0 11 5 11 10 0 6 -2 10 -4 10 -3 0
-8 -4 -11 -10z"/>
<path d="M5045 3299 c-11 -17 1 -21 15 -4 8 9 8 15 2 15 -6 0 -14 -5 -17 -11z"/>
<path d="M5215 3280 c3 -5 8 -10 11 -10 2 0 4 5 4 10 0 6 -5 10 -11 10 -5 0
-7 -4 -4 -10z"/>
<path d="M4030 3260 c-13 -8 -12 -10 3 -10 9 0 17 5 17 10 0 12 -1 12 -20 0z"/>
<path d="M5380 3266 c0 -2 7 -7 16 -10 8 -3 12 -2 9 4 -6 10 -25 14 -25 6z"/>
<path d="M5188 3253 c7 -3 16 -2 19 1 4 3 -2 6 -13 5 -11 0 -14 -3 -6 -6z"/>
<path d="M5720 3245 c-7 -8 -9 -15 -6 -15 4 0 14 7 22 15 9 8 11 15 6 15 -5 0
-15 -7 -22 -15z"/>
<path d="M4138 3243 c6 -2 18 -2 25 0 6 3 1 5 -13 5 -14 0 -19 -2 -12 -5z"/>
<path d="M5016 3234 c-5 -14 -4 -15 9 -4 17 14 19 20 6 20 -5 0 -12 -7 -15
-16z"/>
<path d="M5226 3235 c-3 -8 -1 -15 4 -15 13 0 22 18 11 24 -5 3 -11 -1 -15 -9z"/>
<path d="M5660 3240 c0 -5 5 -10 10 -10 6 0 10 5 10 10 0 6 -4 10 -10 10 -5 0
-10 -4 -10 -10z"/>
<path d="M4192 3228 c6 -18 28 -21 28 -4 0 9 -7 16 -16 16 -9 0 -14 -5 -12
-12z"/>
<path d="M4710 3230 c0 -5 5 -10 11 -10 5 0 7 5 4 10 -3 6 -8 10 -11 10 -2 0
-4 -4 -4 -10z"/>
<path d="M4270 3220 c-12 -8 -9 -10 13 -10 16 0 26 4 22 10 -8 12 -16 12 -35
0z"/>
<path d="M4320 3221 c0 -10 30 -24 37 -17 3 2 -5 9 -16 16 -12 6 -21 7 -21 1z"/>
<path d="M4740 3218 c0 -6 3 -8 7 -5 3 4 11 3 17 -2 6 -5 24 -7 39 -4 21 4 25
8 15 14 -20 13 -78 11 -78 -3z"/>
<path d="M5048 3223 c-15 -4 -15 -6 0 -33 9 -16 31 -35 47 -42 17 -6 34 -18
38 -25 4 -7 24 -13 42 -13 30 0 35 3 35 23 0 27 -15 47 -50 69 -27 16 -85 27
-112 21z"/>
<path d="M3965 3210 c-3 -5 1 -10 9 -10 9 0 16 5 16 10 0 6 -4 10 -9 10 -6 0
-13 -4 -16 -10z"/>
<path d="M4375 3210 c-8 -13 9 -20 24 -11 10 6 9 10 -3 14 -8 3 -18 2 -21 -3z"/>
<path d="M4625 3210 c-3 -5 -2 -10 4 -10 5 0 13 5 16 10 3 6 2 10 -4 10 -5 0
-13 -4 -16 -10z"/>
<path d="M4830 3200 c-14 -4 -38 -11 -54 -15 -37 -8 -25 -19 45 -44 l56 -19
31 25 c18 13 32 33 32 44 0 16 -7 19 -42 18 -24 0 -54 -4 -68 -9z"/>
<path d="M4985 3200 c3 -5 2 -10 -3 -10 -5 0 -9 -18 -10 -41 -2 -33 1 -40 14
-35 8 3 13 2 9 -3 -8 -13 71 -24 91 -13 15 8 12 11 -17 18 -40 10 -48 11 -73
13 -15 1 -16 4 -6 16 7 8 16 12 21 9 5 -3 16 -1 26 4 14 9 14 10 -5 16 -12 4
-22 14 -22 22 0 8 -7 14 -16 14 -8 0 -12 -4 -9 -10z"/>
<path d="M5688 3203 c7 -3 16 -2 19 1 4 3 -2 6 -13 5 -11 0 -14 -3 -6 -6z"/>
<path d="M4485 3187 c3 -7 22 -14 43 -15 77 -3 147 -15 154 -26 5 -8 10 -8 19
1 7 7 11 15 8 17 -4 4 -58 13 -129 21 -19 2 -50 6 -67 10 -25 4 -31 3 -28 -8z"/>
<path d="M5605 3190 c-3 -5 1 -10 9 -10 9 0 16 5 16 10 0 6 -4 10 -9 10 -6 0
-13 -4 -16 -10z"/>
<path d="M5330 3180 c-8 -5 -12 -12 -9 -15 4 -3 12 1 19 10 14 17 11 19 -10 5z"/>
<path d="M5470 3169 c0 -5 5 -7 10 -4 6 3 10 8 10 11 0 2 -4 4 -10 4 -5 0 -10
-5 -10 -11z"/>
<path d="M3950 3160 c0 -5 5 -10 10 -10 6 0 10 5 10 10 0 6 -4 10 -10 10 -5 0
-10 -4 -10 -10z"/>
<path d="M5258 3163 c6 -2 18 -2 25 0 6 3 1 5 -13 5 -14 0 -19 -2 -12 -5z"/>
<path d="M5410 3150 c0 -5 5 -10 10 -10 6 0 10 5 10 10 0 6 -4 10 -10 10 -5 0
-10 -4 -10 -10z"/>
<path d="M4048 3143 c6 -2 18 -2 25 0 6 3 1 5 -13 5 -14 0 -19 -2 -12 -5z"/>
<path d="M5568 3130 c-20 -19 -24 -40 -7 -40 5 0 7 5 4 10 -3 6 -2 10 3 10 9
0 26 30 20 35 -2 1 -11 -5 -20 -15z"/>
<path d="M4210 3128 c0 -4 19 -8 43 -8 23 0 66 -7 96 -15 30 -8 58 -12 63 -9
4 3 8 1 8 -3 0 -5 15 -10 33 -11 42 -3 231 -28 326 -43 61 -10 75 -9 83 2 8
11 9 11 5 -3 -4 -12 3 -20 25 -27 46 -16 64 -15 48 4 -7 8 -16 12 -21 9 -5 -3
-9 0 -9 6 0 6 -4 9 -9 6 -5 -3 -11 3 -14 14 -3 14 -14 20 -34 21 -32 2 -54 4
-138 14 -33 4 -70 7 -82 6 -12 0 -25 4 -28 9 -8 13 -45 13 -45 0 0 -15 -16
-12 -35 6 -9 9 -24 14 -36 11 -12 -3 -46 -2 -77 3 -83 13 -202 18 -202 8z"/>
<path d="M5335 3120 c-3 -5 -15 -10 -26 -10 -10 0 -19 -4 -19 -9 0 -17 40 -59
69 -71 16 -6 32 -18 35 -26 9 -24 -22 -28 -72 -8 -69 26 -81 27 -79 4 1 -22
17 -26 35 -8 7 7 12 8 12 2 0 -16 -22 -34 -43 -34 -29 0 -10 -20 42 -42 79
-35 141 -25 165 26 21 45 20 78 -4 108 -10 14 -16 29 -12 33 4 5 1 5 -6 1 -7
-4 -30 1 -53 11 -33 14 -37 19 -22 24 16 7 16 8 1 8 -9 1 -20 -3 -23 -9z"/>
<path d="M4830 3107 c0 -7 14 -12 30 -13 38 -1 38 1 0 15 -22 7 -30 7 -30 -2z"/>
<path d="M5425 3110 c3 -5 10 -10 16 -10 5 0 9 5 9 10 0 6 -7 10 -16 10 -8 0
-12 -4 -9 -10z"/>
<path d="M4925 3090 c-3 -5 -1 -10 4 -10 6 0 11 5 11 10 0 6 -2 10 -4 10 -3 0
-8 -4 -11 -10z"/>
<path d="M5180 3094 c-8 -2 -48 -8 -87 -14 -40 -7 -73 -15 -73 -20 0 -4 24
-18 54 -30 53 -21 56 -21 85 -4 29 17 57 60 43 67 -4 2 -14 2 -22 1z"/>
<path d="M5243 3065 c-10 -10 -9 -16 2 -25 11 -9 15 -9 15 -1 0 7 10 9 28 5
l27 -7 -22 22 c-26 24 -33 25 -50 6z"/>
<path d="M4910 3050 c0 -6 13 -9 29 -8 16 1 27 6 25 10 -7 12 -54 10 -54 -2z"/>
<path d="M5662 3041 c8 -14 14 -16 24 -7 13 12 1 26 -24 26 -9 0 -10 -4 0 -19z"/>
<path d="M5070 3000 c0 -5 5 -10 11 -10 5 0 7 5 4 10 -3 6 -8 10 -11 10 -2 0
-4 -4 -4 -10z"/>
<path d="M5690 2982 c0 -10 -11 -29 -25 -42 -19 -18 -22 -26 -13 -32 9 -5 4
-8 -12 -8 -24 -1 -24 -1 -6 -15 19 -15 19 -15 -2 -15 -12 0 -22 -5 -22 -11 0
-6 9 -8 20 -4 11 4 20 2 20 -4 0 -6 -4 -11 -10 -11 -5 0 -7 -7 -4 -15 5 -11
-1 -15 -22 -15 -28 -1 -28 -1 -9 -16 l20 -16 -20 4 c-11 2 -25 -3 -32 -12 -9
-11 -12 -11 -13 -2 0 10 -5 10 -22 1 -16 -9 -23 -9 -26 0 -2 6 -17 11 -33 11
-16 0 -29 5 -29 10 0 6 -6 10 -14 10 -7 0 -19 7 -26 15 -7 9 -19 14 -27 11 -8
-3 -16 1 -19 9 -3 7 -12 11 -20 8 -11 -4 -7 -9 13 -20 140 -74 163 -83 197
-83 80 0 121 48 151 180 18 81 18 80 0 80 -8 0 -15 -8 -15 -18z"/>
<path d="M5630 2970 c0 -5 9 -10 21 -10 11 0 17 5 14 10 -3 6 -13 10 -21 10
-8 0 -14 -4 -14 -10z"/>
<path d="M5567 2899 c-10 -6 -30 -8 -45 -5 -23 5 -24 4 -9 -5 19 -11 77 -3 77
12 0 11 -1 11 -23 -2z"/>
<path d="M5260 2880 c0 -5 5 -10 10 -10 6 0 10 5 10 10 0 6 -4 10 -10 10 -5 0
-10 -4 -10 -10z"/>
<path d="M5295 2860 c3 -5 8 -10 11 -10 2 0 4 5 4 10 0 6 -5 10 -11 10 -5 0
-7 -4 -4 -10z"/>
<path d="M3387 2374 c8 -21 53 -66 53 -54 0 6 5 10 11 10 5 0 8 -3 6 -7 -3 -5
10 -8 29 -9 20 0 34 4 34 12 0 16 28 26 36 13 4 -6 11 -6 20 2 24 20 16 26
-33 25 -27 -1 -53 2 -58 6 -6 3 -32 9 -57 12 -41 5 -46 4 -41 -10z"/>
<path d="M5810 2376 c0 -2 7 -9 15 -16 13 -11 14 -10 9 4 -5 14 -24 23 -24 12z"/>
<path d="M5744 2358 c-3 -4 -21 -6 -39 -4 -19 3 -37 1 -40 -3 -2 -5 -16 -6
-30 -3 -14 2 -25 0 -25 -5 0 -5 -27 -8 -60 -7 -33 1 -60 -3 -60 -8 0 -5 -9 -4
-19 2 -23 12 -34 13 -28 3 3 -5 -5 -8 -16 -9 -175 -7 -188 -8 -185 -23 2 -8
20 -20 42 -27 34 -12 37 -12 26 1 -17 21 -8 28 21 17 13 -5 41 -12 62 -16 37
-7 38 -6 32 16 -8 23 -7 23 13 4 22 -19 31 -18 71 11 l25 18 -18 -27 c-10 -15
-16 -33 -13 -40 4 -8 6 -6 6 5 1 20 5 21 34 6 18 -9 20 -9 10 2 -17 17 -16 29
2 29 8 0 13 6 11 13 -1 6 -1 9 1 5 3 -5 13 -8 23 -8 10 0 22 -5 25 -10 4 -6
10 -8 15 -5 5 3 19 1 33 -4 19 -8 29 -5 51 16 15 14 30 22 33 19 4 -3 17 1 30
9 22 15 29 10 24 -17 0 -5 4 -8 9 -8 12 0 12 7 1 35 -8 20 -57 30 -67 13z
m-49 -48 c8 -13 -5 -13 -25 0 -13 8 -13 10 2 10 9 0 20 -4 23 -10z"/>
<path d="M2690 2357 c0 -2 14 -13 30 -25 31 -24 41 -15 14 12 -13 14 -44 22
-44 13z"/>
<path d="M2791 2344 c0 -11 3 -14 6 -6 3 7 2 16 -1 19 -3 4 -6 -2 -5 -13z"/>
<path d="M3656 2342 c-15 -18 -15 -20 2 -35 10 -10 27 -17 37 -17 14 0 15 3 5
15 -7 9 -10 19 -6 23 4 4 15 -4 25 -17 12 -15 25 -22 42 -19 32 4 34 42 2 46
-13 2 -23 8 -23 13 0 17 -66 10 -84 -9z"/>
<path d="M3846 2353 c-3 -3 -3 -10 0 -14 7 -12 34 -11 34 0 0 11 -26 22 -34
14z"/>
<path d="M3903 2330 c3 -18 10 -24 23 -22 28 5 42 22 18 22 -11 0 -26 6 -32
12 -10 10 -12 7 -9 -12z"/>
<path d="M3990 2320 c0 -5 4 -10 9 -10 6 0 13 5 16 10 3 6 -1 10 -9 10 -9 0
-16 -4 -16 -10z"/>
<path d="M4257 2300 c17 -20 43 -27 43 -12 0 14 -23 32 -42 32 -17 0 -17 -1
-1 -20z"/>
<path d="M5185 2309 c-16 -5 -36 -7 -42 -4 -8 2 -13 -4 -13 -15 0 -11 7 -20
15 -20 8 0 15 5 15 10 0 6 9 10 20 10 14 0 18 -5 13 -16 -5 -13 -3 -15 13 -6
11 6 20 20 21 31 2 23 1 23 -42 10z"/>
<path d="M5940 2309 c0 -5 5 -7 10 -4 6 3 10 8 10 11 0 2 -4 4 -10 4 -5 0 -10
-5 -10 -11z"/>
<path d="M5053 2303 c-29 -2 -53 -7 -53 -11 0 -14 89 -10 101 4 6 8 10 13 8
12 -2 -1 -28 -3 -56 -5z"/>
<path d="M2795 2284 c-19 -19 -16 -46 5 -51 13 -4 13 -3 0 6 -10 7 -11 11 -3
11 7 0 10 7 7 15 -7 17 11 21 21 5 7 -12 25 -13 25 -2 0 4 -9 13 -20 19 -15
10 -22 10 -35 -3z"/>
<path d="M2870 2290 c0 -5 5 -10 10 -10 6 0 10 5 10 10 0 6 -4 10 -10 10 -5 0
-10 -4 -10 -10z"/>
<path d="M4570 2284 c0 -9 7 -14 17 -12 25 5 28 28 4 28 -12 0 -21 -6 -21 -16z"/>
<path d="M4635 2290 c3 -5 15 -10 26 -10 11 0 17 5 14 10 -3 6 -15 10 -26 10
-11 0 -17 -4 -14 -10z"/>
<path d="M4795 2280 c-3 -5 3 -10 14 -10 11 0 23 5 26 10 3 6 -3 10 -14 10
-11 0 -23 -4 -26 -10z"/>
<path d="M4942 2278 c-19 -19 -14 -33 6 -16 9 9 23 13 31 10 8 -3 11 0 7 7 -9
14 -29 14 -44 -1z"/>
<path d="M2930 2270 c0 -5 5 -10 10 -10 6 0 10 5 10 10 0 6 -4 10 -10 10 -5 0
-10 -4 -10 -10z"/>
<path d="M5095 2260 c-3 -5 1 -10 9 -10 9 0 16 5 16 10 0 6 -4 10 -9 10 -6 0
-13 -4 -16 -10z"/>
<path d="M2510 2251 c0 -5 9 -7 20 -4 11 3 20 7 20 9 0 2 -9 4 -20 4 -11 0
-20 -4 -20 -9z"/>
<path d="M5690 2249 c0 -5 5 -7 10 -4 6 3 10 8 10 11 0 2 -4 4 -10 4 -5 0 -10
-5 -10 -11z"/>
<path d="M2620 2230 c20 -13 40 -13 40 0 0 6 -12 10 -27 10 -22 0 -25 -2 -13
-10z"/>
<path d="M2730 2220 c0 -5 5 -10 11 -10 5 0 7 5 4 10 -3 6 -8 10 -11 10 -2 0
-4 -4 -4 -10z"/>
<path d="M3261 2214 c0 -11 3 -14 6 -6 3 7 2 16 -1 19 -3 4 -6 -2 -5 -13z"/>
<path d="M3088 2213 c7 -3 16 -2 19 1 4 3 -2 6 -13 5 -11 0 -14 -3 -6 -6z"/>
<path d="M2248 2198 c7 -7 12 -20 12 -30 0 -22 16 -24 24 -2 7 17 -15 44 -35
44 -10 0 -10 -3 -1 -12z"/>
<path d="M2400 2195 c0 -8 7 -15 15 -15 8 0 15 4 15 9 0 5 -7 11 -15 15 -9 3
-15 0 -15 -9z"/>
<path d="M2746 2191 c-4 -5 -2 -12 3 -15 5 -4 12 -2 15 3 4 5 2 12 -3 15 -5 4
-12 2 -15 -3z"/>
<path d="M2660 2180 c0 -5 5 -10 10 -10 6 0 10 5 10 10 0 6 -4 10 -10 10 -5 0
-10 -4 -10 -10z"/>
<path d="M3128 2173 c7 -3 16 -2 19 1 4 3 -2 6 -13 5 -11 0 -14 -3 -6 -6z"/>
<path d="M2306 2158 c4 -6 -1 -17 -11 -24 -19 -14 -20 -13 54 -40 16 -5 71 17
71 28 0 12 -18 10 -25 -2 -5 -8 -11 -8 -20 0 -9 8 -15 8 -20 0 -14 -22 -35
-10 -35 20 0 17 -5 30 -11 30 -5 0 -7 -5 -3 -12z"/>
<path d="M2390 2166 c0 -2 7 -6 15 -10 8 -3 15 -1 15 4 0 6 -7 10 -15 10 -8 0
-15 -2 -15 -4z"/>
<path d="M2680 2150 c-9 -6 -10 -10 -3 -10 6 0 15 5 18 10 8 12 4 12 -15 0z"/>
<path d="M2470 2139 c9 -8 26 -20 38 -27 20 -11 22 -10 22 8 0 13 -7 20 -19
20 -11 0 -28 3 -38 7 -16 6 -16 5 -3 -8z"/>
<path d="M2560 2132 c0 -5 6 -17 14 -28 19 -25 31 -12 14 15 -13 21 -28 28
-28 13z"/>
<path d="M2735 2130 c3 -5 8 -10 11 -10 2 0 4 5 4 10 0 6 -5 10 -11 10 -5 0
-7 -4 -4 -10z"/>
<path d="M2238 2105 c2 -14 8 -28 13 -31 15 -9 22 25 9 41 -19 22 -28 18 -22
-10z"/>
<path d="M2173 2112 c-13 -2 -23 -7 -23 -12 0 -5 6 -7 14 -4 8 3 17 1 21 -5 3
-6 2 -11 -4 -11 -16 0 4 -45 20 -46 32 -3 33 -5 19 -14 -9 -6 -10 -10 -3 -10
18 0 27 20 14 33 -6 6 -11 21 -11 33 0 27 -18 41 -47 36z"/>
<path d="M2700 2090 c0 -5 5 -10 10 -10 6 0 10 5 10 10 0 6 -4 10 -10 10 -5 0
-10 -4 -10 -10z"/>
<path d="M2413 2083 c9 -2 17 -9 17 -14 0 -6 5 -7 11 -3 14 8 -8 24 -31 23
-11 -1 -10 -3 3 -6z"/>
<path d="M2890 2070 c0 -5 5 -10 11 -10 5 0 7 5 4 10 -3 6 -8 10 -11 10 -2 0
-4 -4 -4 -10z"/>
<path d="M2130 2060 c0 -5 5 -10 10 -10 6 0 10 5 10 10 0 6 -4 10 -10 10 -5 0
-10 -4 -10 -10z"/>
<path d="M1987 2049 c-14 -8 -16 -14 -6 -25 17 -21 27 -17 25 11 0 14 -1 25
-1 25 0 0 -8 -5 -18 -11z"/>
<path d="M2080 2044 c21 -24 49 -36 70 -29 32 10 23 21 -17 22 -21 1 -39 6
-41 12 -2 6 -8 11 -14 11 -6 0 -5 -6 2 -16z"/>
<path d="M4433 2024 c-3 -8 -12 -13 -20 -10 -8 4 -28 -5 -45 -19 -16 -14 -25
-25 -19 -25 6 0 11 -8 11 -17 0 -23 29 -53 46 -46 8 3 14 -1 14 -11 0 -15 11
-20 37 -17 6 1 14 -3 18 -9 12 -19 35 -10 46 18 6 15 13 22 16 15 2 -7 10 -10
18 -7 23 9 11 101 -16 125 -28 24 -97 26 -106 3z"/>
<path d="M1920 2011 c-33 -6 -34 -7 -11 -15 16 -6 28 -3 39 8 9 9 14 15 12 15
-3 -1 -21 -5 -40 -8z"/>
<path d="M2430 2011 c0 -5 7 -11 15 -15 8 -3 15 -1 15 3 0 5 -7 11 -15 15 -8
3 -15 1 -15 -3z"/>
<path d="M3725 2010 c-3 -5 -1 -10 4 -10 6 0 11 5 11 10 0 6 -2 10 -4 10 -3 0
-8 -4 -11 -10z"/>
<path d="M5615 2010 c-3 -5 -1 -10 4 -10 6 0 11 5 11 10 0 6 -2 10 -4 10 -3 0
-8 -4 -11 -10z"/>
<path d="M2155 1990 c-3 -5 -2 -10 4 -10 5 0 13 5 16 10 3 6 2 10 -4 10 -5 0
-13 -4 -16 -10z"/>
<path d="M3865 1991 c-3 -7 2 -11 14 -11 11 0 23 -4 26 -10 9 -15 25 -12 25 5
0 8 -6 15 -14 15 -8 0 -21 3 -29 6 -8 3 -18 1 -22 -5z"/>
<path d="M3955 1989 c-2 -3 11 -11 30 -16 21 -7 37 -7 41 -2 3 5 8 8 12 5 4
-2 42 -7 85 -10 83 -7 108 7 35 19 -56 10 -198 13 -203 4z"/>
<path d="M4210 1980 c0 -15 7 -20 25 -20 29 0 31 6 11 26 -20 20 -36 17 -36
-6z"/>
<path d="M2200 1963 c8 -3 18 -11 22 -17 5 -7 8 -4 8 7 0 11 -7 17 -22 16 -16
0 -18 -2 -8 -6z"/>
<path d="M2420 1955 c12 -15 30 -12 30 6 0 5 -10 9 -21 9 -18 0 -19 -2 -9 -15z"/>
<path d="M3238 1963 c7 -3 16 -2 19 1 4 3 -2 6 -13 5 -11 0 -14 -3 -6 -6z"/>
<path d="M4300 1960 c0 -5 4 -10 9 -10 6 0 13 5 16 10 3 6 -1 10 -9 10 -9 0
-16 -4 -16 -10z"/>
<path d="M2300 1950 c0 -5 7 -10 15 -10 8 0 15 5 15 10 0 6 -7 10 -15 10 -8 0
-15 -4 -15 -10z"/>
<path d="M2696 1932 c-3 -5 1 -15 9 -22 16 -14 20 -3 6 19 -5 8 -11 9 -15 3z"/>
<path d="M2790 1881 c0 -5 5 -13 10 -16 6 -3 10 -2 10 4 0 5 -4 13 -10 16 -5
3 -10 2 -10 -4z"/>
<path d="M4380 1860 c0 -5 5 -10 11 -10 5 0 7 5 4 10 -3 6 -8 10 -11 10 -2 0
-4 -4 -4 -10z"/>
<path d="M2955 1830 c3 -5 8 -10 11 -10 2 0 4 5 4 10 0 6 -5 10 -11 10 -5 0
-7 -4 -4 -10z"/>
<path d="M5385 1830 c3 -5 8 -10 11 -10 2 0 4 5 4 10 0 6 -5 10 -11 10 -5 0
-7 -4 -4 -10z"/>
<path d="M3798 1683 c7 -3 16 -2 19 1 4 3 -2 6 -13 5 -11 0 -14 -3 -6 -6z"/>
<path d="M4127 1673 c-4 -3 -7 -11 -7 -17 0 -6 5 -5 12 2 6 6 9 14 7 17 -3 3
-9 2 -12 -2z"/>
<path d="M1395 2270 c3 -5 11 -10 16 -10 6 0 7 5 4 10 -3 6 -11 10 -16 10 -6
0 -7 -4 -4 -10z"/>
<path d="M7170 892 c0 -5 7 -16 16 -23 14 -12 16 -11 13 5 -4 20 -29 35 -29
18z"/>
<path d="M0 26 c0 -16 53 -26 125 -25 49 1 49 1 -24 15 -41 7 -81 16 -88 18
-7 3 -13 -1 -13 -8z"/>
</g>
</svg>
